<svg xmlns="http://www.w3.org/2000/svg" width="57.057" height="57.056" viewBox="0 0 57.057 57.056">
  <g id="emoji-Angry" transform="translate(-754.487 -488.456)">
    <g id="Group_4231" data-name="Group 4231" transform="translate(742.67 476.64)">
      <circle id="Ellipse_17" data-name="Ellipse 17" cx="28.528" cy="28.528" r="28.528" transform="translate(11.817 11.817)" fill="#ffd05d"/>
      <path id="Path_8310" data-name="Path 8310" d="M830.352,524.432a28.533,28.533,0,0,1-38.966,39.682,28.531,28.531,0,1,0,38.966-39.682Z" transform="translate(-775.081 -508.436)" fill="#fdc453"/>
      <path id="Path_8311" data-name="Path 8311" d="M785.642,547.671a26.486,26.486,0,0,1,47.482-16.146,26.488,26.488,0,1,0-43.963,29.347A26.367,26.367,0,0,1,785.642,547.671Z" transform="translate(-769.948 -504.316)" fill="#ffd77f"/>
      <g id="Group_4229" data-name="Group 4229" transform="translate(27.733 31.493)">
        <g id="Group_4228" data-name="Group 4228">
          <g id="Group_4226" data-name="Group 4226">
            <ellipse id="Ellipse_18" data-name="Ellipse 18" cx="2.102" cy="3.543" rx="2.102" ry="3.543" fill="#303030"/>
          </g>
          <g id="Group_4227" data-name="Group 4227" transform="translate(21.02 0)">
            <path id="Path_8312" data-name="Path 8312" d="M892.538,574.277c0,1.957-.941,3.543-2.1,3.543s-2.1-1.586-2.1-3.543.941-3.543,2.1-3.543S892.538,572.32,892.538,574.277Z" transform="translate(-888.334 -570.734)" fill="#303030"/>
          </g>
        </g>
      </g>
      <g id="Group_4230" data-name="Group 4230" transform="translate(27.464 23.722)">
        <rect id="Rectangle_501" data-name="Rectangle 501" width="2.705" height="9.027" transform="translate(0 1.913) rotate(-45)" fill="#303030"/>
        <rect id="Rectangle_502" data-name="Rectangle 502" width="2.705" height="9.027" transform="translate(23.849 0) rotate(45)" fill="#303030"/>
      </g>
    </g>
    <g id="Group_4233" data-name="Group 4233" transform="translate(772.505 518.862)">
      <g id="Group_4232" data-name="Group 4232" transform="translate(0)">
        <path id="Path_8313" data-name="Path 8313" d="M852.83,613.969c-.609-6.3-5.1-11.189-10.534-11.177s-9.9,4.919-10.486,11.223Z" transform="translate(-831.81 -602.792)" fill="#695342"/>
      </g>
      <path id="Path_8314" data-name="Path 8314" d="M831.81,628.452s8.849-8.879,21.02-.046Z" transform="translate(-831.81 -617.229)" fill="#f06669"/>
    </g>
  </g>
</svg>
