<svg xmlns="http://www.w3.org/2000/svg" width="57.056" height="57.056" viewBox="0 0 57.056 57.056">
  <g id="emoji-happy" transform="translate(-1769.336 415.507)">
    <g id="Group_4189" data-name="Group 4189" transform="translate(1757.519 -427.324)">
      <circle id="Ellipse_12" data-name="Ellipse 12" cx="28.528" cy="28.528" r="28.528" transform="translate(11.817 11.817)" fill="#ffd05d"/>
      <path id="Path_8289" data-name="Path 8289" d="M1845.2-379.531a28.394,28.394,0,0,1,4.488,15.367,28.528,28.528,0,0,1-28.528,28.528,28.394,28.394,0,0,1-14.926-4.213,28.507,28.507,0,0,0,24.04,13.162,28.528,28.528,0,0,0,28.528-28.528A28.509,28.509,0,0,0,1845.2-379.531Z" transform="translate(-1789.93 395.527)" fill="#fdc453"/>
      <path id="Path_8290" data-name="Path 8290" d="M1800.491-356.293a26.486,26.486,0,0,1,26.486-26.487,26.442,26.442,0,0,1,21,10.341,26.477,26.477,0,0,0-22.967-13.285,26.487,26.487,0,0,0-26.487,26.486,26.369,26.369,0,0,0,5.491,16.146A26.367,26.367,0,0,1,1800.491-356.293Z" transform="translate(-1784.797 399.647)" fill="#ffd77f"/>
    </g>
    <path id="Path_8291" data-name="Path 8291" d="M1839.933-298.545a.941.941,0,0,0-1.531,1.027,14.3,14.3,0,0,0,13.276,8.988,14.3,14.3,0,0,0,13.168-8.725.94.94,0,0,0-1.52-1.038C1859.151-294.246,1850.288-288.486,1839.933-298.545Z" transform="translate(-53.762 -85.494)" fill="#5e4939"/>
    <g id="Group_4190" data-name="Group 4190" transform="translate(1780.656 -394.39)">
      <path id="Path_8292" data-name="Path 8292" d="M1899.941-327.754a5.261,5.261,0,0,0,4.908,3.322,5.278,5.278,0,0,0,4.868-3.225.84.84,0,0,0-.3-1.03.841.841,0,0,0-1.071.089c-1.583,1.535-4.085,2.767-7.019-.083a.847.847,0,0,0-.593-.243.849.849,0,0,0-.474.146A.845.845,0,0,0,1899.941-327.754Z" transform="translate(-1875.369 328.923)" fill="#303030"/>
      <path id="Path_8293" data-name="Path 8293" d="M1826.711-327.754a5.261,5.261,0,0,0,4.907,3.322,5.276,5.276,0,0,0,4.867-3.225.838.838,0,0,0-.3-1.029.841.841,0,0,0-1.071.089c-1.583,1.535-4.085,2.767-7.019-.083a.848.848,0,0,0-.593-.243.848.848,0,0,0-.474.146A.845.845,0,0,0,1826.711-327.754Z" transform="translate(-1826.648 328.923)" fill="#303030"/>
    </g>
    <g id="Group_4191" data-name="Group 4191" transform="translate(1771.909 -387.989)">
      <circle id="Ellipse_13" data-name="Ellipse 13" cx="4.981" cy="4.981" r="4.981" transform="translate(0 0)" fill="#f5a6ac"/>
      <circle id="Ellipse_14" data-name="Ellipse 14" cx="4.981" cy="4.981" r="4.981" transform="translate(41.949 0)" fill="#f5a6ac"/>
    </g>
  </g>
</svg>
