<svg xmlns="http://www.w3.org/2000/svg" width="57.057" height="57.056" viewBox="0 0 57.057 57.056">
  <g id="emoji-sad" transform="translate(-297.638 -52.493)">
    <circle id="Ellipse_15" data-name="Ellipse 15" cx="28.528" cy="28.528" r="28.528" transform="translate(297.638 52.493)" fill="#ffd05d"/>
    <path id="Path_8295" data-name="Path 8295" d="M373.5,88.469a28.533,28.533,0,0,1-38.966,39.682A28.531,28.531,0,1,0,373.5,88.469Z" transform="translate(-32.411 -31.797)" fill="#fdc453"/>
    <path id="Path_8296" data-name="Path 8296" d="M328.793,111.707a26.486,26.486,0,0,1,47.482-16.146,26.488,26.488,0,1,0-43.963,29.347A26.366,26.366,0,0,1,328.793,111.707Z" transform="translate(-27.277 -27.677)" fill="#ffd77f"/>
    <path id="Path_8297" data-name="Path 8297" d="M372.885,133.5c0,1.957-.941,3.543-2.1,3.543s-2.1-1.586-2.1-3.543.941-3.543,2.1-3.543S372.885,131.539,372.885,133.5Z" transform="translate(-55.127 -59.396)" fill="#303030"/>
    <path id="Path_8298" data-name="Path 8298" d="M435.689,133.5c0,1.957-.941,3.543-2.1,3.543s-2.1-1.586-2.1-3.543.941-3.543,2.1-3.543S435.689,131.539,435.689,133.5Z" transform="translate(-96.911 -59.396)" fill="#303030"/>
    <path id="Path_8299" data-name="Path 8299" d="M437.658,112.394c-.307-.09-.605-.173-.9-.255-.641-.179-1.246-.349-1.831-.552a16.226,16.226,0,0,1-2.4-1.022,14.268,14.268,0,0,1-2.173-1.409,21.443,21.443,0,0,1-2.067-1.9.124.124,0,0,0-.212.093,5.436,5.436,0,0,0,1.115,2.912,7.114,7.114,0,0,0,2.413,2.052,7.509,7.509,0,0,0,2.916.838l.117.008a6.283,6.283,0,0,0,3.041-.54.124.124,0,0,0-.018-.231Z" transform="translate(-94.641 -44.275)" fill="#414042"/>
    <path id="Path_8300" data-name="Path 8300" d="M355.838,112.394c.307-.09.605-.173.9-.255.641-.179,1.246-.349,1.831-.552a16.222,16.222,0,0,0,2.4-1.022,14.286,14.286,0,0,0,2.173-1.409,21.526,21.526,0,0,0,2.067-1.9.124.124,0,0,1,.212.093,5.433,5.433,0,0,1-1.115,2.912,7.115,7.115,0,0,1-2.413,2.052,7.506,7.506,0,0,1-2.916.838l-.117.008a6.284,6.284,0,0,1-3.042-.54.124.124,0,0,1,.018-.231Z" transform="translate(-46.523 -44.275)" fill="#414042"/>
    <path id="Path_8301" data-name="Path 8301" d="M373.206,177.177c-.3.034-.469-.334-.466-.61a8.7,8.7,0,0,1,1.005-3.848,10.766,10.766,0,0,1,2.568-3.178,12.222,12.222,0,0,1,7.679-2.785,11.618,11.618,0,0,1,7.73,2.769,9.735,9.735,0,0,1,3.524,7.034c0,.292-.192.668-.517.61-.268-.048-.487-.412-.684-.576q-.457-.38-.943-.721a19.125,19.125,0,0,0-2.021-1.235,15.157,15.157,0,0,0-8.4-1.857,14.485,14.485,0,0,0-5.32,1.569,18.6,18.6,0,0,0-2.824,1.8c-.336.257-.889.949-1.3,1.027Z" transform="translate(-57.828 -83.88)" fill="#5e4939"/>
  </g>
</svg>
