<svg xmlns="http://www.w3.org/2000/svg" xmlns:xlink="http://www.w3.org/1999/xlink" width="20" height="24.539" viewBox="0 0 20 24.539"><defs><style>.a{fill:url(#a);}</style><linearGradient id="a" x1="0.5" x2="0.5" y2="1" gradientUnits="objectBoundingBox"><stop offset="0" stop-color="#f80"/><stop offset="1" stop-color="#ffb056"/></linearGradient></defs><path class="a" d="M17,12.781a1.517,1.517,0,0,1-1.5,1.534h-7a1.534,1.534,0,0,1,0-3.067h7A1.517,1.517,0,0,1,17,12.781ZM12.5,16.36h-4a1.534,1.534,0,0,0,0,3.067h4a1.534,1.534,0,0,0,0-3.067ZM22,8.34V18.916a5.569,5.569,0,0,1-5.5,5.624h-9A5.569,5.569,0,0,1,2,18.916V5.624A5.569,5.569,0,0,1,7.5,0h6.343a5.4,5.4,0,0,1,3.889,1.647l2.657,2.717A5.651,5.651,0,0,1,22,8.34ZM19,18.916V9.2H15a2.023,2.023,0,0,1-2-2.045V3.067H7.5A2.529,2.529,0,0,0,5,5.624V18.916a2.529,2.529,0,0,0,2.5,2.556h9A2.529,2.529,0,0,0,19,18.916Z" transform="translate(-2)"/></svg>