<svg xmlns="http://www.w3.org/2000/svg" xmlns:xlink="http://www.w3.org/1999/xlink" width="21.5" height="21.5" viewBox="0 0 21.5 21.5"><defs><style>.a{fill:url(#a);}</style><linearGradient id="a" x1="0.5" x2="0.5" y2="1" gradientUnits="objectBoundingBox"><stop offset="0" stop-color="#f80"/><stop offset="1" stop-color="#ffb056"/></linearGradient></defs><path class="a" d="M20.582,7.788,14.234,1.441a4.933,4.933,0,0,0-6.968,0L.918,7.788A3.115,3.115,0,0,0,0,10.006v9.3a2.2,2.2,0,0,0,2.2,2.2H19.3a2.2,2.2,0,0,0,2.2-2.2v-9.3a3.115,3.115,0,0,0-.918-2.217ZM18.812,18.812H14.333V15.962a3.42,3.42,0,0,0-3.42-3.42h-.326a3.42,3.42,0,0,0-3.42,3.42v2.851H2.687V10.006a.452.452,0,0,1,.131-.317L9.166,3.341a2.24,2.24,0,0,1,3.168,0l6.348,6.348a.452.452,0,0,1,.131.317Z" transform="translate(0 0)"/></svg>