<svg xmlns="http://www.w3.org/2000/svg" xmlns:xlink="http://www.w3.org/1999/xlink" width="20.4" height="20.852" viewBox="0 0 20.4 20.852"><defs><style>.a{stroke:#f80;stroke-linecap:round;stroke-linejoin:round;stroke-width:0.4px;fill:url(#a);}</style><linearGradient id="a" x1="0.5" x2="0.5" y2="1" gradientUnits="objectBoundingBox"><stop offset="0" stop-color="#f80"/><stop offset="1" stop-color="#ffb056"/></linearGradient></defs><g transform="translate(0.2 0.2)"><path class="a" d="M6.817,17.9H2.905a.349.349,0,0,1-.349-.349V2.905a.349.349,0,0,1,.349-.349H6.817A1.278,1.278,0,0,0,6.817,0H2.905A2.908,2.908,0,0,0,0,2.905V17.547a2.908,2.908,0,0,0,2.905,2.905H6.817a1.278,1.278,0,0,0,0-2.556Z" transform="translate(0 0)"/><path class="a" d="M20.068,8.18,16.76,4.874a1.278,1.278,0,1,0-1.807,1.808L17.86,9.589,6.278,9.613a1.278,1.278,0,0,0,0,2.557h0l11.629-.021L14.952,15.1a1.278,1.278,0,0,0,1.807,1.806L20.065,13.6a3.835,3.835,0,0,0,0-5.423Z" transform="translate(-1.189 -0.665)"/></g></svg>