<svg xmlns="http://www.w3.org/2000/svg" xmlns:xlink="http://www.w3.org/1999/xlink" width="19.454" height="25.144" viewBox="0 0 19.454 25.144"><defs><style>.a{stroke:#f80;fill:url(#a);}</style><linearGradient id="a" x1="0.5" x2="0.5" y2="1" gradientUnits="objectBoundingBox"><stop offset="0" stop-color="#f80"/><stop offset="1" stop-color="#ffb056"/></linearGradient></defs><g transform="translate(0.5 0.5)"><path class="a" d="M12.209,12.072a6.124,6.124,0,0,0,6.209-6.036A6.124,6.124,0,0,0,12.209,0,6.124,6.124,0,0,0,6,6.036a6.13,6.13,0,0,0,6.209,6.036Zm0-10.06a4.083,4.083,0,0,1,4.139,4.024,4.141,4.141,0,0,1-8.279,0,4.083,4.083,0,0,1,4.139-4.024Z" transform="translate(-2.982)"/><path class="a" d="M12.227,14C2.891,13.912,3.006,18.056,3,23.054a1.025,1.025,0,0,0,2.05,0c0-3.889-.647-7.231,7.177-7.042,7.452-.34,7.177,3.153,7.177,7.042a1.025,1.025,0,0,0,2.05,0C21.448,18.056,21.473,14.013,12.227,14Z" transform="translate(-3 0.084)"/></g></svg>